HIERARCHY
ROOT Hips
{
	OFFSET 0.00000 0.00000 0.00000
	CHANNELS 6 Xposition Yposition Zposition Zrotation Yrotation Xrotation 
	JOINT LHipJoint
	{
		OFFSET 0 0 0
		CHANNELS 3 Zrotation Yrotation Xrotation
		JOINT LeftUpLeg
		{
			OFFSET 1.36443 -1.53315 0.80540
			CHANNELS 3 Zrotation Yrotation Xrotation
			JOINT LeftLeg
			{
				OFFSET 2.27494 -6.25036 0.00000
				CHANNELS 3 Zrotation Yrotation Xrotation
				JOINT LeftFoot
				{
					OFFSET 2.17461 -5.97470 0.00000
					CHANNELS 3 Zrotation Yrotation Xrotation
					JOINT LeftToeBase
					{
						OFFSET 0.22144 -0.60841 2.08966
						CHANNELS 3 Zrotation Yrotation Xrotation
						End Site
						{
							OFFSET 0.00000 -0.00000 1.09206
						}
					}
				}
			}
		}
	}
	JOINT RHipJoint
	{
		OFFSET 0 0 0
		CHANNELS 3 Zrotation Yrotation Xrotation
		JOINT RightUpLeg
		{
			OFFSET -1.29957 -1.53315 0.80539
			CHANNELS 3 Zrotation Yrotation Xrotation
			JOINT RightLeg
			{
				OFFSET -2.23917 -6.15209 0.00000
				CHANNELS 3 Zrotation Yrotation Xrotation
				JOINT RightFoot
				{
					OFFSET -2.18029 -5.99030 0.00000
					CHANNELS 3 Zrotation Yrotation Xrotation
					JOINT RightToeBase
					{
						OFFSET -0.22354 -0.61416 1.89975
						CHANNELS 3 Zrotation Yrotation Xrotation
						End Site
						{
							OFFSET -0.00000 -0.00000 1.00221
						}
					}
				}
			}
		}
	}
	JOINT LowerBack
	{
		OFFSET 0 0 0
		CHANNELS 3 Zrotation Yrotation Xrotation
		JOINT Spine
		{
			OFFSET -0.04725 2.10352 -0.01215
			CHANNELS 3 Zrotation Yrotation Xrotation
			JOINT Spine1
			{
				OFFSET 0.04471 2.09612 -0.07192
				CHANNELS 3 Zrotation Yrotation Xrotation
				JOINT Neck
				{
					OFFSET 0 0 0
					CHANNELS 3 Zrotation Yrotation Xrotation
					JOINT Neck1
					{
						OFFSET -0.01586 1.38087 0.11506
						CHANNELS 3 Zrotation Yrotation Xrotation
						JOINT Head
						{
							OFFSET -0.01055 1.38869 -0.12115
							CHANNELS 3 Zrotation Yrotation Xrotation
							End Site
							{
								OFFSET -0.00310 1.39537 -0.05348
							}
						}
					}
				}
				JOINT LeftShoulder
				{
					OFFSET 0 0 0
					CHANNELS 3 Zrotation Yrotation Xrotation
					JOINT LeftArm
					{
						OFFSET 2.71932 0.62535 0.37316
						CHANNELS 3 Zrotation Yrotation Xrotation
						JOINT LeftForeArm
						{
							OFFSET 4.47366 -0.00000 0.00000
							CHANNELS 3 Zrotation Yrotation Xrotation
							JOINT LeftHand
							{
								OFFSET 3.19948 -0.00000 -0.00000
								CHANNELS 3 Zrotation Yrotation Xrotation
								JOINT LeftFingerBase
								{
									OFFSET 0 0 0
									CHANNELS 3 Zrotation Yrotation Xrotation
									JOINT LeftHandIndex1
									{
										OFFSET 0.49267 -0.00000 -0.00000
										CHANNELS 3 Zrotation Yrotation Xrotation
										End Site
										{
											OFFSET 0.39720 -0.00000 -0.00000
										}
									}
								}
								JOINT LThumb
								{
									OFFSET 0 0 0
									CHANNELS 3 Zrotation Yrotation Xrotation
									End Site
									{
										OFFSET 0.40327 -0.00000 0.40327
									}
								}
							}
						}
					}
				}
				JOINT RightShoulder
				{
					OFFSET 0 0 0
					CHANNELS 3 Zrotation Yrotation Xrotation
					JOINT RightArm
					{
						OFFSET -2.97334 0.70851 0.47631
						CHANNELS 3 Zrotation Yrotation Xrotation
						JOINT RightForeArm
						{
							OFFSET -4.32690 -0.00000 -0.00000
							CHANNELS 3 Zrotation Yrotation Xrotation
							JOINT RightHand
							{
								OFFSET -3.18960 -0.00000 0.00000
								CHANNELS 3 Zrotation Yrotation Xrotation
								JOINT RightFingerBase
								{
									OFFSET 0 0 0
									CHANNELS 3 Zrotation Yrotation Xrotation
									JOINT RightHandIndex1
									{
										OFFSET -0.46450 -0.00000 -0.00000
										CHANNELS 3 Zrotation Yrotation Xrotation
										End Site
										{
											OFFSET -0.37449 -0.00000 -0.00000
										}
									}
								}
								JOINT RThumb
								{
									OFFSET 0 0 0
									CHANNELS 3 Zrotation Yrotation Xrotation
									End Site
									{
										OFFSET -0.38021 -0.00000 0.38021
									}
								}
							}
						}
					}
				}
			}
		}
	}
}
MOTION
Frames: 13
Frame Time: .0083333
14.5034 14.8457 -12.562 0 0 0 0 0 0 -21 0 0 0 0 0 0 0 0 0 0 0 0 0 0 21 0 0 0 0 0 0 0 0 0 0 0 0 0 0 0 0 0 0 0 0 0 0 -16 0 0 21 0 0 11 0 0 0 -8 0 0 0 0 0 0 0 0 0 0 0 0 0 0 0 0 0 0 0 0 8 0 0 0 0 0 0 0 0 0 0 0 0 0 0 0 0 0
14.5034 14.8457 -12.5620 1.6615 -5.3117 6.0942 0.0000 0.0000 0.0000 -21.9893 -2.3790 -24.4613 6.7253 15.0961 47.8276 4.1896 -6.5614 -37.5684 3.3486 -11.2390 -33.0904 0.0000 0.0000 0.0000 22.4263 17.0857 -18.7625 -6.0394 -14.4664 45.1397 -4.1344 -15.6916 -45.8447 -2.7870 10.3420 -30.0916 -1.3687 -0.7338 -5.3648 3.4255 -1.0155 0.5755 4.2362 -0.5705 3.6942 -7.1774 -7.4922 -13.4411 0.8541 -9.5880 35.0714 -0.0088 -4.9674 14.8091 -0.0000 -0.0000 0.0000 -83.4190 6.2723 46.7926 26.1977 -37.4033 -9.0075 -0.0000 0.0000 -19.4721 25.8385 4.2640 2.0620 -7.1250 0.0000 -0.0000 -0.6675 34.7147 0.1685 -0.0000 -0.0000 0.0000 78.7317 -4.9146 23.5758 -16.6596 26.4069 -3.9348 0.0000 0.0000 6.3892 -11.0826 -34.9168 6.3971 7.1250 -0.0000 -0.0000 27.2593 -63.3662 -12.6190
14.5060 14.8448 -12.5482 1.4231 -5.2545 5.9841 0.0000 0.0000 0.0000 -21.8393 -2.1415 -24.2170 6.6152 14.9991 47.4036 4.1319 -4.9034 -37.5397 3.7059 -11.7583 -34.8824 0.0000 0.0000 0.0000 22.6391 16.2332 -18.7452 -5.9945 -14.4230 44.9595 -4.1416 -14.8099 -45.3393 -2.7176 10.2233 -29.7028 -1.7087 -0.7644 -5.3843 3.4148 -1.0364 0.7077 4.4167 -0.5923 3.8506 -6.8152 -7.1221 -13.7809 1.0828 -9.2378 35.7944 0.0574 -4.7313 15.1998 0.0000 -0.0000 0.0000 -83.4795 6.0062 46.0632 25.5820 -36.7930 -8.6361 -0.0000 0.0000 -19.3027 25.9639 4.4057 2.1423 -7.1250 0.0000 -0.0000 -0.5690 34.8773 0.1414 0.0000 -0.0000 0.0000 78.7935 -5.1562 24.4991 -17.1947 27.1137 -4.1757 0.0000 0.0000 5.3315 -11.1693 -35.0381 6.4674 7.1250 -0.0000 -0.0000 27.2983 -63.4945 -12.7203
14.5098 14.8417 -12.5362 1.1863 -5.1268 5.7946 0.0000 0.0000 0.0000 -21.6620 -1.9239 -23.8908 6.5326 14.9253 47.0836 4.0753 -3.6802 -37.4908 3.9677 -12.1173 -36.1484 0.0000 0.0000 0.0000 22.8316 15.1875 -18.8312 -5.9854 -14.4142 44.9232 -4.0547 -14.1902 -44.6147 -2.7474 10.2744 -29.8699 -2.0486 -0.8007 -5.2674 3.3516 -1.0617 0.7837 4.5424 -0.6131 3.8714 -6.4348 -6.8681 -13.8550 1.3441 -9.1030 36.4271 0.1121 -4.5836 15.5067 -0.0000 -0.0000 0.0000 -83.4230 5.9180 45.3799 24.9493 -36.1521 -8.2600 -0.0000 0.0000 -19.1433 26.2122 4.8688 2.3928 -7.1250 0.0000 -0.0000 -0.3809 35.4032 0.0898 -0.0000 -0.0000 0.0000 79.0143 -5.6187 25.1890 -17.7578 27.8459 -4.4355 0.0000 0.0000 4.3124 -11.0717 -34.8870 6.3860 7.1250 -0.0000 -0.0000 27.2387 -63.3373 -12.5904
14.5164 14.8386 -12.5291 0.9534 -4.8972 5.5766 0.0000 0.0000 0.0000 -21.4742 -1.7300 -23.5348 6.4698 14.8687 46.8394 4.1331 -3.6205 -37.7805 4.0396 -12.2129 -36.4894 0.0000 0.0000 0.0000 22.9872 14.1756 -18.9799 -5.9796 -14.4085 44.8997 -3.8503 -13.7797 -43.5136 -2.7446 10.2697 -29.8547 -2.3577 -0.8558 -5.0337 3.2333 -1.1133 0.8533 4.5914 -0.6445 3.8205 -5.9995 -6.6939 -13.7572 1.4980 -9.0618 36.7948 0.1094 -4.4864 15.6415 -0.0000 0.0000 0.0000 -83.2116 5.8572 44.8377 24.2709 -35.4494 -7.8631 -0.0000 0.0000 -19.1863 26.5744 5.1603 2.5760 -7.1250 0.0000 -0.0000 -0.0898 35.7457 0.0204 -0.0000 0.0000 0.0000 79.3645 -6.0410 25.5196 -18.2512 28.4776 -4.6684 0.0000 0.0000 3.7846 -10.8528 -35.0332 6.2804 7.1250 -0.0000 -0.0000 27.6287 -63.4067 -12.8296
14.5282 14.8383 -12.5271 0.7220 -4.6920 5.4436 0.0000 0.0000 0.0000 -21.2686 -1.6069 -23.3032 6.4219 14.8251 46.6524 4.1325 -3.5474 -37.7925 4.1329 -12.3352 -36.9282 0.0000 0.0000 0.0000 23.1097 13.0703 -19.3679 -6.0020 -14.4302 44.9896 -3.5666 -13.6128 -42.1846 -2.8237 10.4040 -30.2951 -2.6337 -0.9509 -4.8133 3.1201 -1.2226 0.9408 4.6222 -0.7049 3.8013 -5.6850 -6.5248 -13.6471 1.6098 -8.9575 36.9048 0.1255 -4.3871 15.6494 0.0000 -0.0000 0.0000 -83.0481 5.7504 44.1207 23.5287 -34.6619 -7.4368 -0.0000 0.0000 -19.2339 26.9534 4.8156 2.4444 -7.1250 0.0000 -0.0000 0.2392 35.3789 -0.0565 0.0000 -0.0000 0.0000 79.6487 -6.3489 26.0112 -18.7398 29.0940 -4.9037 0.0000 0.0000 3.1439 -10.5643 -34.9482 6.0980 7.1250 -0.0000 -0.0000 27.8420 -63.2573 -12.8392
14.5437 14.8452 -12.5334 0.5588 -4.5033 5.3748 0.0000 0.0000 0.0000 -21.1102 -1.6586 -23.1792 6.3987 14.8039 46.5616 4.0990 -3.4705 -37.6472 4.1908 -12.4100 -37.1983 0.0000 0.0000 0.0000 23.1092 12.0536 -19.7443 -6.0610 -14.4872 45.2259 -3.7030 -11.7167 -41.6637 -2.6238 10.0595 -29.1697 -3.0334 -1.1175 -4.5908 3.0757 -1.4242 1.0610 4.7887 -0.8169 3.8307 -5.5411 -6.3435 -13.7501 1.6573 -8.7423 36.9771 0.1547 -4.2700 15.6919 -0.0000 -0.0000 0.0000 -83.0592 5.5698 43.1673 22.7662 -33.8322 -7.0077 -0.0000 0.0000 -19.1869 27.2431 4.2286 2.1742 -7.1250 0.0000 -0.0000 0.4968 34.7332 -0.1252 -0.0000 -0.0000 0.0000 79.7028 -6.5339 26.7314 -19.1721 29.6319 -5.1156 0.0000 0.0000 2.3263 -10.4605 -34.4279 5.9590 7.1250 -0.0000 -0.0000 27.3991 -62.7787 -12.3114
14.5607 14.8590 -12.5417 0.4840 -4.3211 5.2998 0.0000 0.0000 0.0000 -21.0734 -1.7826 -23.0000 6.3564 14.7650 46.3957 4.1124 -3.4046 -37.7247 4.2595 -12.4979 -37.5168 0.0000 0.0000 0.0000 22.9403 11.2811 -20.4150 -6.1812 -14.6017 45.7048 -3.5937 -10.6941 -40.5928 -2.5126 9.8608 -28.5271 -3.5937 -1.3158 -4.3682 3.0674 -1.6628 1.2563 5.0821 -0.9560 3.9514 -5.4728 -6.1970 -14.0259 1.6382 -8.5197 37.0299 0.1636 -4.1661 15.7671 -0.0000 0.0000 0.0000 -83.1622 5.2460 42.2020 22.0879 -33.0762 -6.6337 -0.0000 0.0000 -19.1088 27.3897 4.5673 2.3626 -7.1250 0.0000 -0.0000 0.6099 35.1202 -0.1480 -0.0000 0.0000 0.0000 79.6299 -6.5594 27.2273 -19.4814 30.0124 -5.2695 0.0000 0.0000 1.9593 -10.3365 -34.0949 5.8377 7.1250 -0.0000 -0.0000 27.1860 -62.4569 -12.0021
14.5808 14.8472 -12.5574 0.3770 -4.2920 5.2148 0.0000 0.0000 0.0000 -21.0229 -1.9117 -22.8743 6.3254 14.7365 46.2742 4.0941 -2.9898 -37.7233 4.4495 -12.7356 -38.3868 0.0000 0.0000 0.0000 22.8313 10.3622 -21.0060 -6.3683 -14.7760 46.4425 -3.6368 -8.9945 -39.8831 -2.5341 9.8997 -28.6525 -4.0269 -1.4210 -4.0917 2.9687 -1.7835 1.4183 5.2190 -1.0302 3.9894 -5.2888 -6.1101 -14.1545 1.5647 -8.4120 37.0836 0.1148 -4.1049 15.8024 -0.0000 0.0000 0.0000 -83.0602 4.9712 41.4539 21.4473 -32.3467 -6.2876 -0.0000 0.0000 -18.9560 27.5476 5.3138 2.7657 -7.1250 0.0000 -0.0000 0.7208 35.9675 -0.1600 -0.0000 0.0000 0.0000 79.7296 -6.6927 27.5486 -19.7353 30.3221 -5.3971 0.0000 0.0000 1.7254 -10.1244 -34.0002 5.7023 7.1250 -0.0000 -0.0000 27.3122 -62.3204 -11.9744
14.6042 14.8607 -12.5708 0.2689 -4.3870 5.1635 0.0000 0.0000 0.0000 -20.9912 -2.0868 -22.6500 6.2728 14.6876 46.0671 4.0362 -2.5077 -37.5501 4.6299 -12.9545 -39.1984 0.0000 0.0000 0.0000 22.4718 9.9436 -22.0429 -6.6603 -15.0390 47.5774 -3.4838 -7.1210 -38.2180 -2.2959 9.4569 -27.2354 -4.3185 -1.4062 -3.7903 2.7673 -1.7500 1.4622 5.1810 -1.0156 3.8633 -4.9801 -6.0659 -13.8809 1.4964 -8.4225 37.0044 0.0434 -4.0841 15.6728 -0.0000 0.0000 0.0000 -82.6765 4.8611 41.1286 20.8054 -31.6005 -5.9476 -0.0000 0.0000 -18.8379 27.9507 5.7855 3.0617 -7.1250 0.0000 -0.0000 1.0461 36.5213 -0.2182 -0.0000 0.0000 0.0000 79.9280 -7.3043 27.9071 -20.2146 30.9001 -5.6412 0.0000 0.0000 1.2716 -9.9252 -34.0495 5.5956 7.1250 -0.0000 -0.0000 27.5706 -62.3127 -12.0920
14.6354 14.8616 -12.5888 0.1722 -4.5704 5.1584 0.0000 0.0000 0.0000 -21.0270 -2.4059 -22.4558 6.2316 14.6491 45.9043 4.0674 -2.3815 -37.7294 4.6132 -12.9345 -39.1239 0.0000 0.0000 0.0000 22.0837 9.0612 -23.6278 -7.0691 -15.3898 49.1353 -2.9323 -6.9267 -35.3160 -2.6271 10.0654 -29.1888 -4.5620 -1.3526 -3.4980 2.5810 -1.6696 1.5144 5.1347 -0.9767 3.7441 -4.7195 -6.0249 -13.6807 1.4630 -8.4266 36.8710 -0.0055 -4.0613 15.5396 0.0000 -0.0000 0.0000 -82.2900 4.7422 40.9374 20.2844 -30.9834 -5.6770 -0.0000 0.0000 -18.7968 25.4977 13.3366 6.2780 -7.1250 0.0000 -0.0000 -1.7311 44.6889 0.0133 0.0000 -0.0000 0.0000 79.9378 -8.0353 28.3682 -20.9282 31.7444 -6.0121 0.0000 0.0000 0.7184 -9.5180 -34.3618 5.4060 7.1250 -0.0000 -0.0000 28.3180 -62.4800 -12.5600
14.6698 14.8566 -12.6146 -0.0141 -4.9740 5.2079 0.0000 0.0000 0.0000 -21.0171 -2.7196 -22.3761 6.2102 14.6290 45.8196 4.1551 -2.1749 -38.1977 4.5052 -12.8040 -38.6390 0.0000 0.0000 0.0000 21.6215 8.6649 -25.1287 -7.6366 -15.8454 51.2431 -2.7936 -4.0214 -33.1924 -2.4898 9.8194 -28.3938 -4.6938 -1.3287 -3.1892 2.4855 -1.6397 1.6402 5.1161 -0.9655 3.6978 -4.5437 -5.9031 -13.9775 1.3126 -8.2272 36.9299 -0.0757 -3.9700 15.6100 -0.0000 -0.0000 0.0000 -82.1314 4.5781 40.3403 19.9216 -30.5478 -5.4914 -0.0000 0.0000 -18.6299 24.5594 15.7022 7.0503 -7.1250 0.0000 -0.0000 -2.9907 47.1336 -0.1576 -0.0000 -0.0000 0.0000 79.7584 -8.2217 28.8984 -21.3196 32.1995 -6.2194 0.0000 0.0000 0.3572 -9.1138 -34.4686 5.1877 7.1250 -0.0000 -0.0000 28.8507 -62.4689 -12.8100
14.7041 14.8668 -12.6419 -0.2081 -5.5747 5.3739 0.0000 0.0000 0.0000 -21.0386 -2.9477 -22.4715 6.1970 14.6165 45.7672 4.2243 -1.3742 -38.7199 4.5187 -12.8203 -38.6996 0.0000 0.0000 0.0000 20.8883 8.9358 -27.1702 -8.3750 -16.3882 53.9024 -2.5410 -0.0763 -30.2425 -1.9400 8.7400 -24.9855 -4.8292 -1.3130 -2.9273 2.4414 -1.6216 1.7131 5.1521 -0.9590 3.6263 -4.4458 -5.7326 -14.2762 1.0926 -7.9072 37.0255 -0.1414 -3.8493 15.6965 -0.0000 -0.0000 0.0000 -82.1167 4.4526 39.5687 19.5612 -30.1100 -5.3095 -0.0000 0.0000 -18.3669 25.2190 13.3215 6.1934 -7.1250 0.0000 -0.0000 -1.9868 44.6378 0.0178 -0.0000 -0.0000 0.0000 79.5230 -8.1546 29.3682 -21.3766 32.2653 -6.2498 0.0000 0.0000 0.3541 -9.0077 -34.3918 5.1167 7.1250 -0.0000 -0.0000 28.8803 -62.3759 -12.7610
